<svg viewBox="0 0 125 125" fill="none" xmlns="http://www.w3.org/2000/svg">
<rect x="1" y="1" width="123" height="123" rx="19" fill="#334155" stroke="#020617" stroke-width="2"/>
<g filter="url(#filter0_d_1_4)">
<path d="M16.88 99V28.92H35.12L37.808 57.72H38.192L40.88 28.92H59.12V99H46.16L47.312 51H46.928L42.32 85.56H33.68L29.072 51H28.688L29.84 99H16.88ZM65.84 99V28.92H83.12L92.336 73.08H92.72V28.92H106.16V99H88.88L79.664 54.84H79.28V99H65.84Z" fill="white"/>
<path d="M16.88 99H14.88V101H16.88V99ZM16.88 28.92V26.92H14.88V28.92H16.88ZM35.12 28.92L37.1113 28.7341L36.942 26.92H35.12V28.92ZM37.808 57.72L35.8167 57.9059L35.986 59.72H37.808V57.72ZM38.192 57.72V59.72H40.014L40.1833 57.9059L38.192 57.72ZM40.88 28.92V26.92H39.058L38.8887 28.7341L40.88 28.92ZM59.12 28.92H61.12V26.92H59.12V28.92ZM59.12 99V101H61.12V99H59.12ZM46.16 99L44.1606 98.952L44.1114 101H46.16V99ZM47.312 51L49.3114 51.048L49.3606 49H47.312V51ZM46.928 51V49H45.177L44.9455 50.7357L46.928 51ZM42.32 85.56V87.56H44.071L44.3025 85.8243L42.32 85.56ZM33.68 85.56L31.6975 85.8243L31.929 87.56H33.68V85.56ZM29.072 51L31.0545 50.7357L30.823 49H29.072V51ZM28.688 51V49H26.6394L26.6886 51.048L28.688 51ZM29.84 99V101H31.8886L31.8394 98.952L29.84 99ZM18.88 99V28.92H14.88V99H18.88ZM16.88 30.92H35.12V26.92H16.88V30.92ZM33.1287 29.1059L35.8167 57.9059L39.7993 57.5341L37.1113 28.7341L33.1287 29.1059ZM37.808 59.72H38.192V55.72H37.808V59.72ZM40.1833 57.9059L42.8713 29.1059L38.8887 28.7341L36.2007 57.5341L40.1833 57.9059ZM40.88 30.92H59.12V26.92H40.88V30.92ZM57.12 28.92V99H61.12V28.92H57.12ZM59.12 97H46.16V101H59.12V97ZM48.1594 99.048L49.3114 51.048L45.3126 50.952L44.1606 98.952L48.1594 99.048ZM47.312 49H46.928V53H47.312V49ZM44.9455 50.7357L40.3375 85.2957L44.3025 85.8243L48.9105 51.2643L44.9455 50.7357ZM42.32 83.56H33.68V87.56H42.32V83.56ZM35.6625 85.2957L31.0545 50.7357L27.0895 51.2643L31.6975 85.8243L35.6625 85.2957ZM29.072 49H28.688V53H29.072V49ZM26.6886 51.048L27.8406 99.048L31.8394 98.952L30.6874 50.952L26.6886 51.048ZM29.84 97H16.88V101H29.84V97ZM65.84 99H63.84V101H65.84V99ZM65.84 28.92V26.92H63.84V28.92H65.84ZM83.12 28.92L85.0778 28.5114L84.7457 26.92H83.12V28.92ZM92.336 73.08L90.3782 73.4886L90.7103 75.08H92.336V73.08ZM92.72 73.08V75.08H94.72V73.08H92.72ZM92.72 28.92V26.92H90.72V28.92H92.72ZM106.16 28.92H108.16V26.92H106.16V28.92ZM106.16 99V101H108.16V99H106.16ZM88.88 99L86.9222 99.4086L87.2543 101H88.88V99ZM79.664 54.84L81.6218 54.4314L81.2897 52.84H79.664V54.84ZM79.28 54.84V52.84H77.28V54.84H79.28ZM79.28 99V101H81.28V99H79.28ZM67.84 99V28.92H63.84V99H67.84ZM65.84 30.92H83.12V26.92H65.84V30.92ZM81.1622 29.3286L90.3782 73.4886L94.2938 72.6714L85.0778 28.5114L81.1622 29.3286ZM92.336 75.08H92.72V71.08H92.336V75.08ZM94.72 73.08V28.92H90.72V73.08H94.72ZM92.72 30.92H106.16V26.92H92.72V30.92ZM104.16 28.92V99H108.16V28.92H104.16ZM106.16 97H88.88V101H106.16V97ZM90.8378 98.5914L81.6218 54.4314L77.7062 55.2486L86.9222 99.4086L90.8378 98.5914ZM79.664 52.84H79.28V56.84H79.664V52.84ZM77.28 54.84V99H81.28V54.84H77.28ZM79.28 97H65.84V101H79.28V97Z" fill="#020617"/>
</g>
<defs>
<filter id="filter0_d_1_4" x="16.88" y="28.92" width="97.28" height="78.08" filterUnits="userSpaceOnUse" color-interpolation-filters="sRGB">
<feFlood flood-opacity="0" result="BackgroundImageFix"/>
<feColorMatrix in="SourceAlpha" type="matrix" values="0 0 0 0 0 0 0 0 0 0 0 0 0 0 0 0 0 0 127 0" result="hardAlpha"/>
<feOffset dx="4" dy="4"/>
<feGaussianBlur stdDeviation="2"/>
<feComposite in2="hardAlpha" operator="out"/>
<feColorMatrix type="matrix" values="0 0 0 0 0.00784314 0 0 0 0 0.0235294 0 0 0 0 0.0901961 0 0 0 0.25 0"/>
<feBlend mode="normal" in2="BackgroundImageFix" result="effect1_dropShadow_1_4"/>
<feBlend mode="normal" in="SourceGraphic" in2="effect1_dropShadow_1_4" result="shape"/>
</filter>
</defs>
</svg>
