<svg viewBox="0 0 40 40" fill="none" xmlns="http://www.w3.org/2000/svg">
<rect x="0.5" y="0.5" width="39" height="39" rx="2.5" fill="#0F172A" stroke="#16A34A"/>
<path d="M14.8093 21.0381H11.6949V24.1525H14.8093V21.0381Z" fill="white"/>
<path d="M28.3051 21.0381H25.1907V24.1525H28.3051V21.0381Z" fill="white"/>
<path d="M36.2006 18.8523L21.2655 3.91667C21.2655 3.91667 20.7791 3.38982 20.0041 3.38982C19.2292 3.38982 18.7708 3.90421 18.7708 3.90421L13.7712 8.89401V5.98516C13.7712 5.69811 13.5391 5.46609 13.2521 5.46609H10.1377C9.85065 5.46609 9.61863 5.69811 9.61863 5.98516V13.0388L3.79625 18.8492C3.51439 19.1311 3.38982 19.5702 3.38982 20C3.38982 20.8596 4.08692 21.5572 4.94702 21.5572C5.37681 21.5572 5.80971 21.4269 6.09156 21.145L6.50422 20.7324V34.5339C6.50422 35.6815 7.43284 36.6102 8.58049 36.6102H31.4195C32.5671 36.6102 33.4957 35.6815 33.4957 34.5339V20.7236L33.9131 21.1409C34.1949 21.4217 34.6232 21.5572 35.0529 21.5572C35.913 21.5572 36.6102 20.8601 36.6102 20C36.6102 19.5697 36.4825 19.1342 36.2006 18.8523ZM15.8474 24.6716C15.8474 24.9586 15.6154 25.1907 15.3284 25.1907H11.1758C10.8888 25.1907 10.6568 24.9586 10.6568 24.6716V20.5191C10.6568 20.232 10.8888 20 11.1758 20H15.3284C15.6154 20 15.8474 20.232 15.8474 20.5191V24.6716ZM23.1144 35.5731H16.8856V27.787C16.8856 27.5 17.1176 27.268 17.4046 27.268H22.5953C22.8824 27.268 23.1144 27.5 23.1144 27.787V35.5731ZM29.3432 24.6716C29.3432 24.9586 29.1112 25.1907 28.8241 25.1907H24.6716C24.3846 25.1907 24.1525 24.9586 24.1525 24.6716V20.5191C24.1525 20.232 24.3846 20 24.6716 20H28.8241C29.1112 20 29.3432 20.232 29.3432 20.5191V24.6716ZM35.0529 20.5191C34.9097 20.5191 34.7405 20.5004 34.647 20.4064L20.3716 6.13101C20.2704 6.0298 20.1375 5.97893 20.0047 5.97893C19.8718 5.97893 19.7389 6.0298 19.6377 6.13101L5.3576 20.4116C5.26365 20.5056 5.09028 20.5191 4.94702 20.5191C4.65998 20.5191 4.42795 20.287 4.42795 20C4.42795 19.8567 4.43626 19.6771 4.53021 19.5832L19.4991 4.64077C19.4991 4.64077 19.6927 4.42795 20.0047 4.42795C20.3166 4.42795 20.5144 4.63454 20.5144 4.63454L35.4666 19.5863C35.5606 19.6802 35.572 19.8567 35.572 20C35.572 20.2865 35.34 20.5191 35.0529 20.5191Z" fill="white"/>
</svg>
